<svg version="1.2" xmlns="http://www.w3.org/2000/svg" viewBox="0 0 576 576" width="576" height="576">
	<title>4148310</title>
	<style>
		tspan { white-space:pre } 
		.s0 { fill: #52dbc7 } 
		.s1 { fill: #18c6a8 } 
		.s2 { fill: #0db292 } 
		.s3 { fill: #e6fffb } 
		.s4 { fill: #fafdff } 
		.s5 { fill: #83f2e5 } 
		.s6 { fill: #ffe236 } 
		.s7 { fill: #ffffff } 
		.s8 { fill: #ffc28f } 
		.s9 { fill: #29287b } 
		.s10 { fill: #f2f2f2 } 
		.s11 { fill: #f9b27d } 
		.s12 { fill: #06345e } 
		.s13 { fill: #052c49 } 
		.s14 { fill: #e8e8e8 } 
		.s15 { fill: #efefef } 
		.s16 { fill: #ffd31a } 
		.s17 { fill: #e3f2ff } 
		.s18 { fill: #232323 } 
		.s19 { fill: #0050a0 } 
		.s20 { fill: #005091 } 
		.s21 { fill: #f9b785 } 
	</style>
	<g id="OBJECTS">
		<g id="&lt;Group&gt;">
			<g id="&lt;Group&gt;">
				<path id="&lt;Path&gt;" class="s0" d="m561 524.2c0 19.4-121.2 35.2-270.8 35.2-149.5 0-270.8-15.8-270.8-35.2 0-19.5 121.3-35.3 270.8-35.3 149.6 0 270.8 15.8 270.8 35.3z"/>
				<g id="&lt;Group&gt;">
					<g id="&lt;Group&gt;">
						<g id="&lt;Group&gt;">
							<g id="&lt;Group&gt;">
								<g id="&lt;Group&gt;">
									<g id="&lt;Group&gt;">
										<g id="&lt;Group&gt;">
											<g id="&lt;Group&gt;">
												<g id="&lt;Group&gt;">
													<path id="&lt;Path&gt;" class="s1" d="m403 488.9c0 15.9-12.9 28.8-28.8 28.8h-186.5c-15.9 0-28.8-12.9-28.8-28.8v-442.8c0-15.9 12.9-28.8 28.8-28.8h186.5c15.9 0 28.8 12.9 28.8 28.8z"/>
													<path id="&lt;Compound Path&gt;" fill-rule="evenodd" class="s2" d="m374.2 521.3h-186.5c-17.9 0-32.4-14.5-32.4-32.4v-442.8c0-17.9 14.5-32.5 32.4-32.5h186.5c17.9 0 32.4 14.6 32.4 32.5v442.8c0 17.9-14.5 32.4-32.4 32.4zm-186.5-500.3c-13.9 0-25.1 11.2-25.1 25.1v442.8c0 13.9 11.2 25.1 25.1 25.1h186.5c13.8 0 25.1-11.2 25.1-25.1v-442.8c0-13.9-11.3-25.1-25.1-25.1z"/>
												</g>
												<path id="&lt;Path&gt;" class="s2" d="m188.7 35.5c0 2.3-1.9 4.2-4.2 4.2-2.4 0-4.3-1.9-4.3-4.2 0-2.3 1.9-4.2 4.3-4.2 2.3 0 4.2 1.9 4.2 4.2z"/>
												<path id="&lt;Path&gt;" class="s2" d="m199.7 35.5c0 1.6-1.3 2.9-2.9 2.9-1.6 0-2.9-1.3-2.9-2.9 0-1.6 1.3-2.9 2.9-2.9 1.6 0 2.9 1.3 2.9 2.9z"/>
												<g id="&lt;Group&gt;">
													<path id="&lt;Compound Path&gt;" fill-rule="evenodd" class="s2" d="m280.9 508.1c-7.3 0-13.2-6-13.2-13.3 0-7.3 5.9-13.2 13.2-13.2 7.3 0 13.3 5.9 13.3 13.2 0 7.3-6 13.3-13.3 13.3zm0-24.7c-6.3 0-11.4 5.1-11.4 11.4 0 6.3 5.1 11.4 11.4 11.4 6.3 0 11.4-5.1 11.4-11.4 0-6.3-5.1-11.4-11.4-11.4z"/>
												</g>
											</g>
										</g>
									</g>
								</g>
							</g>
							<path id="&lt;Path&gt;" class="s3" d="m390.4 469.2h-217.6v-415h217.6z"/>
							<path id="&lt;Path&gt;" class="s4" d="m361.2 201.9h-159.1c-7.4 0-13.4-6-13.4-13.4v-71.6c0-7.4 6-13.4 13.4-13.4h159.1c7.4 0 13.4 6 13.4 13.4v71.6c0 7.4-6 13.4-13.4 13.4z"/>
							<g id="&lt;Group&gt;">
								<path id="&lt;Path&gt;" class="s5" d="m344.1 146.5c0 4.8-3.9 8.8-8.7 8.8-4.9 0-8.8-4-8.8-8.8 0-4.9 3.9-8.8 8.8-8.8 4.8 0 8.7 3.9 8.7 8.8z"/>
								<path id="&lt;Path&gt;" class="s5" d="m350.8 183.9v-13.9c0-8.4-7-15.4-15.4-15.4-8.5 0-15.4 7-15.4 15.4v13.9z"/>
							</g>
							<g id="&lt;Group&gt;">
								<path id="&lt;Path&gt;" class="s5" d="m270.9 146h-65.3v-2.1h65.3z"/>
								<path id="&lt;Path&gt;" class="s5" d="m270.9 154.4h-65.3v-2.1h65.3z"/>
								<path id="&lt;Path&gt;" class="s5" d="m270.9 162.9h-65.3v-2.1h65.3z"/>
								<path id="&lt;Path&gt;" class="s5" d="m270.9 171.4h-65.3v-2.1h65.3z"/>
								<path id="&lt;Path&gt;" class="s5" d="m270.9 179.9h-65.3v-2.1h65.3z"/>
								<path id="&lt;Path&gt;" class="s5" d="m270.9 188.4h-65.3v-2.1h65.3z"/>
							</g>
							<path id="&lt;Path&gt;" class="s4" d="m361.2 314.8h-159.1c-7.4 0-13.4-6-13.4-13.4v-71.6c0-7.4 6-13.4 13.4-13.4h159.1c7.4 0 13.4 6 13.4 13.4v71.6c0 7.4-6 13.4-13.4 13.4z"/>
							<g id="&lt;Group&gt;">
								<path id="&lt;Path&gt;" class="s5" d="m344.1 255.4c0 4.9-3.9 8.8-8.7 8.8-4.9 0-8.8-3.9-8.8-8.8 0-4.8 3.9-8.7 8.8-8.7 4.8 0 8.7 3.9 8.7 8.7z"/>
								<path id="&lt;Path&gt;" class="s5" d="m350.8 292.9v-13.9c0-8.5-7-15.4-15.4-15.4-8.5 0-15.4 6.9-15.4 15.4v13.9z"/>
							</g>
							<g id="&lt;Group&gt;">
								<path id="&lt;Path&gt;" class="s5" d="m270.9 254.9h-65.3v-2.1h65.3z"/>
								<path id="&lt;Path&gt;" class="s5" d="m270.9 263.4h-65.3v-2.1h65.3z"/>
								<path id="&lt;Path&gt;" class="s5" d="m270.9 271.9h-65.3v-2.1h65.3z"/>
								<path id="&lt;Path&gt;" class="s5" d="m270.9 280.4h-65.3v-2.2h65.3z"/>
								<path id="&lt;Path&gt;" class="s5" d="m270.9 288.8h-65.3v-2.1h65.3z"/>
								<path id="&lt;Path&gt;" class="s5" d="m270.9 297.3h-65.3v-2.1h65.3z"/>
							</g>
							<path id="&lt;Path&gt;" class="s4" d="m361.2 427.7h-159.1c-7.4 0-13.4-6-13.4-13.4v-71.6c0-7.4 6-13.5 13.4-13.5h159.1c7.4 0 13.4 6.1 13.4 13.5v71.6c0 7.4-6 13.4-13.4 13.4z"/>
							<g id="&lt;Group&gt;">
								<path id="&lt;Path&gt;" class="s6" d="m212.8 114.7l2.9 5.9 6.5 1-4.7 4.6 1.1 6.5-5.8-3.1-5.8 3.1 1.1-6.5-4.8-4.6 6.6-1z"/>
								<path id="&lt;Path&gt;" class="s6" d="m234.5 114.7l2.9 5.9 6.5 1-4.7 4.6 1.1 6.5-5.8-3.1-5.9 3.1 1.1-6.5-4.7-4.6 6.5-1z"/>
								<path id="&lt;Path&gt;" class="s6" d="m256.1 114.7l2.9 5.9 6.6 1-4.8 4.6 1.2 6.5-5.9-3.1-5.8 3.1 1.1-6.5-4.7-4.6 6.5-1z"/>
								<path id="&lt;Path&gt;" class="s6" d="m277.8 114.7l2.9 5.9 6.5 1-4.7 4.6 1.1 6.5-5.8-3.1-5.8 3.1 1.1-6.5-4.8-4.6 6.6-1z"/>
								<path id="&lt;Path&gt;" class="s6" d="m299.5 114.7l2.9 5.9 6.5 1-4.7 4.6 1.1 6.5-5.8-3.1-5.9 3.1 1.1-6.5-4.7-4.6 6.5-1z"/>
							</g>
							<g id="&lt;Group&gt;">
								<path id="&lt;Path&gt;" class="s6" d="m212.8 227.5l2.9 5.9 6.5 0.9-4.7 4.6 1.1 6.5-5.8-3-5.8 3 1.1-6.5-4.8-4.6 6.6-0.9z"/>
								<path id="&lt;Path&gt;" class="s6" d="m234.5 227.5l2.9 5.9 6.5 0.9-4.7 4.6 1.1 6.5-5.8-3-5.9 3 1.1-6.5-4.7-4.6 6.5-0.9z"/>
								<path id="&lt;Path&gt;" class="s6" d="m256.1 227.5l2.9 5.9 6.6 0.9-4.8 4.6 1.2 6.5-5.9-3-5.8 3 1.1-6.5-4.7-4.6 6.5-0.9z"/>
								<path id="&lt;Path&gt;" class="s6" d="m277.8 227.5l2.9 5.9 6.5 0.9-4.7 4.6 1.1 6.5-5.8-3-5.8 3 1.1-6.5-4.8-4.6 6.6-0.9z"/>
								<path id="&lt;Path&gt;" class="s6" d="m299.5 227.5l2.9 5.9 6.5 0.9-4.7 4.6 1.1 6.5-5.8-3-5.9 3 1.1-6.5-4.7-4.6 6.5-0.9z"/>
							</g>
							<g id="&lt;Group&gt;">
								<path id="&lt;Path&gt;" class="s6" d="m212.8 342.9l2.9 5.9 6.5 0.9-4.7 4.6 1.1 6.5-5.8-3-5.8 3 1.1-6.5-4.8-4.6 6.6-0.9z"/>
								<path id="&lt;Path&gt;" class="s6" d="m234.5 342.9l2.9 5.9 6.5 0.9-4.7 4.6 1.1 6.5-5.8-3-5.9 3 1.1-6.5-4.7-4.6 6.5-0.9z"/>
								<path id="&lt;Path&gt;" class="s6" d="m256.1 342.9l2.9 5.9 6.6 0.9-4.8 4.6 1.2 6.5-5.9-3-5.8 3 1.1-6.5-4.7-4.6 6.5-0.9z"/>
								<path id="&lt;Path&gt;" class="s6" d="m277.8 342.9l2.9 5.9 6.5 0.9-4.7 4.6 1.1 6.5-5.8-3-5.8 3 1.1-6.5-4.8-4.6 6.6-0.9z"/>
								<path id="&lt;Path&gt;" class="s6" d="m299.5 342.9l2.9 5.9 6.5 0.9-4.7 4.6 1.1 6.5-5.8-3-5.9 3 1.1-6.5-4.7-4.6 6.5-0.9z"/>
							</g>
							<g id="&lt;Group&gt;">
								<path id="&lt;Path&gt;" class="s5" d="m344.1 369.2c0 4.8-3.9 8.8-8.7 8.8-4.9 0-8.8-4-8.8-8.8 0-4.9 3.9-8.8 8.8-8.8 4.8 0 8.7 3.9 8.7 8.8z"/>
								<path id="&lt;Path&gt;" class="s5" d="m350.8 406.6v-13.9c0-8.5-7-15.4-15.4-15.4-8.5 0-15.4 6.9-15.4 15.4v13.9z"/>
							</g>
							<g id="&lt;Group&gt;">
								<path id="&lt;Path&gt;" class="s5" d="m270.9 370.1h-65.3v-2.1h65.3z"/>
								<path id="&lt;Path&gt;" class="s5" d="m270.9 378.6h-65.3v-2.1h65.3z"/>
								<path id="&lt;Path&gt;" class="s5" d="m270.9 387.1h-65.3v-2.2h65.3z"/>
								<path id="&lt;Path&gt;" class="s5" d="m270.9 395.5h-65.3v-2.1h65.3z"/>
								<path id="&lt;Path&gt;" class="s5" d="m270.9 404h-65.3v-2.1h65.3z"/>
								<path id="&lt;Path&gt;" class="s5" d="m270.9 412.5h-65.3v-2.1h65.3z"/>
							</g>
						</g>
						<g id="&lt;Group&gt;">
							<g id="&lt;Group&gt;">
								<g id="&lt;Group&gt;">
									<path id="&lt;Path&gt;" class="s7" d="m192.5 241.1c0 0-1.9 16.2-8.8 9.6-7-6.6-2-10.5-2-10.5z"/>
									<g id="&lt;Group&gt;">
										<path id="&lt;Path&gt;" class="s8" d="m187.7 244.1c0 0 3.1 1.1 5-0.4 1.9-1.4-2.9-5.6-2.9-5.6z"/>
										<g id="&lt;Group&gt;">
											<g id="&lt;Group&gt;">
												<path id="&lt;Path&gt;" class="s9" d="m180.5 266.5l-48.7-18.1 25.8-69.3 48.7 18.1z"/>
											</g>
											<path id="&lt;Path&gt;" class="s10" d="m178.3 258.3l-39.5-14.7 20.9-56.3 39.5 14.7z"/>
										</g>
										<g id="&lt;Group&gt;">
											<path id="&lt;Path&gt;" class="s8" d="m200.2 230.1c0 0-5.6-15.6-6.5-16.3-1-0.8-2.6 0.9-1.1 5.4 1.5 4.4 3.9 11.3 4.1 12.6 0.1 1.2 4.3 2.6 3.5-1.7z"/>
											<path id="&lt;Path&gt;" class="s8" d="m198.3 233.4c0 0-2.1-7.6-2.7-8.5-0.6-0.9-6.6-1.2-7.6-1-0.9 0.2-1 2.4 1.3 2.8 2.3 0.3 3.1 0.5 3.1 0.5 0 0 2.5 7.7 2.5 9.6 0.1 1.9 4.1 1.2 3.4-3.4z"/>
											<path id="&lt;Path&gt;" class="s8" d="m196.3 237.1c0 0-2.2-7.7-2.8-8.6-0.6-0.9-6.5-1.2-7.5-1-0.9 0.2-1 2.5 1.3 2.8 2.3 0.4 3.1 0.6 3.1 0.6 0 0 2.5 7.7 2.5 9.6 0.1 1.9 4.1 1.1 3.4-3.4z"/>
											<path id="&lt;Path&gt;" class="s8" d="m193.9 240.4c0 0-2-6.2-2.6-6.9-0.6-0.8-6.6-0.9-7.5-0.7-1 0.1-1 2 1.2 2.2 2.3 0.3 3.1 0.5 3.1 0.5 0 0 2.4 6.2 2.4 7.8 0.1 1.6 4.1 0.9 3.4-2.9z"/>
										</g>
									</g>
								</g>
								<g id="&lt;Group&gt;">
									<path id="&lt;Path&gt;" class="s11" d="m124 379c0 0-13.6 23.9-13.8 42.6-0.1 23.8 16.3 70.5 16.5 73.1 0.1 2.6-1.5 8.1-1.7 8.8-0.2 0.6 10.4 14.2 13.8 15 3.3 0.9 7.6-2.6 7.6-2.6 0 0-10-7.2-11.7-14.6-1.8-7.5-3.2-73.5-0.2-91.9 2.9-18.4 10.2-27.7 7.6-33.9-2.6-6.3-18.1 3.5-18.1 3.5z"/>
									<g id="&lt;Group&gt;">
										<path id="&lt;Path&gt;" class="s12" d="m125.3 502.4c0 0-2.5 2.1-1.9 8.7 0.7 6.7 3.7 14.1 3.7 14.1l4.6-0.3-0.3-5.4c0 0 6.8 5.4 12.8 5.6 6 0.3 18.9 1.3 19.2 0.1 0.4-1.2-18-10.2-18-10.2 0 0-2.5 4.2-6.4 2.4-3.9-1.7-13.7-15-13.7-15z"/>
									</g>
									<path id="&lt;Path&gt;" class="s8" d="m160.2 379.3c0 0 0.6 4.5 0.4 6.5-0.2 2-47.2 103.9-49 106.9-1.8 3 0.8 18.2 2.7 23 1.1 3.1-8.4-0.9-8.4-0.9l-4.3-20.3c0 0 4.4-2.7 6.6-12.5 2.2-9.8-2.9-49.5 13-70 9.4-12.1 19.9-28.7 18.1-32.9-1.8-4.3 20.9 0.2 20.9 0.2z"/>
									<g id="&lt;Group&gt;">
										<path id="&lt;Path&gt;" class="s12" d="m102.2 493.6c0 0-3.1 0.9-5.4 7.2-2.2 6.3-2.6 14.3-2.6 14.3l4.3 1.7 1.9-5c0 0 4 9.9 9.4 12.7 5.3 2.7 14.7 3 15.5 2 0.8-0.9-11.3-12-11.3-12 0 0-2.9 1.9-5.7-1.4-2.8-3.2-6.1-19.5-6.1-19.5z"/>
									</g>
									<g id="&lt;Group&gt;">
										<path id="&lt;Path&gt;" class="s12" d="m108.5 304.8l11.2 79.2 44.3-3.2 0.8-80z"/>
									</g>
									<g id="&lt;Group&gt;">
										<path id="&lt;Path&gt;" class="s13" d="m164.7 307.5l0.1-6.7-56.3 4 11.2 79.2 10-0.8c-4.7-32.6-4.6-79.4 35-75.7z"/>
									</g>
								</g>
								<path id="&lt;Path&gt;" class="s7" d="m103.2 276.5c0 8.4 0.4 20.4 1 32.9l63.7-4.6c-0.6-21.3-1.5-42.5-2.8-51.3-3.3-20.9-5.5-67.5-0.4-84 1.8-7.7-28-33.3-28-33.3l-26.2 1.9-19 11.8 26.9 67.6c0 0-15.2 32-15.2 59z"/>
								<path id="&lt;Path&gt;" class="s14" d="m103.2 276.5c0 8.4 0.4 20.4 1 32.9l6.9-0.5c-0.9-12.8-1.5-25-1.5-33.5 0-27 19.8-59.3 19.8-59.3l-37.9-66.2 26.9 67.6c0 0-15.2 32-15.2 59z"/>
								<g id="&lt;Group&gt;">
									<path id="&lt;Path&gt;" class="s8" d="m230.3 162.4c0 0 10.9-6.7 11.8-7.8 0.8-1.1 14.2-2.5 19.4-4.3 4.1-1.3 2.6 2 0.1 3.3-2.9 1.3-12 4.8-12 4.8 0 0 2.6 4 0.3 5.9 0.6 2.5-0.4 4.2-1.7 4.4 0.6 1.5-0.1 2.5-1.2 3.6-1.2 1.1-4.2 0.8-4.9 0.4-0.7-0.5-1-0.8-1-0.8 0 0-7.3 2.5-11.8-0.2-4.6-2.8 1-9.3 1-9.3z"/>
									<path id="&lt;Path&gt;" class="s7" d="m230.8 158.6l-70.9 32.2c0 0-31-13.9-41.3-23.2-8.1-7.3-12.6-21-17.8-22.9-5.2-1.9-23.9 18.4-16.1 29.6 2 2.9 46.8 36.5 53.7 40 19.1 9.6 38.1 0.1 58.9-12.8 25.4-15.9 39.8-25.1 39.8-25.1z"/>
									<path id="&lt;Path&gt;" class="s15" d="m197.8 193.1c-20.8 13-39.8 22.5-58.9 12.8-6.9-3.4-51.7-37-53.7-39.9q-1.1-1.5-1.5-3.2c-1.3 4.1-1.3 8.2 1 11.5 2 2.9 46.8 36.5 53.7 40 19.1 9.6 38.1 0.1 58.9-12.8 25.4-15.9 39.8-25.1 39.8-25.1l-2.3-6.6c-5.3 3.4-18.1 11.5-37 23.3z"/>
								</g>
								<g id="&lt;Group&gt;">
									<path id="&lt;Path&gt;" class="s8" d="m112.3 116.6l-2.7 22.1 26.6 7.5c0 0-2.6-7.4-4.1-9.6-1.5-2.2-5.7-12.1-5.7-12.1z"/>
									<path id="&lt;Path&gt;" class="s11" d="m126.8 135.7c1.2 0.5 3.5 0.6 5 0.3-1.7-2.9-5.4-11.5-5.4-11.5l-11.9-6.7c0.2 8.3 4.8 14.8 12.3 17.9z"/>
									<path id="&lt;Path&gt;" class="s8" d="m111 107.1c0 0-3 14.8 15 25.5 6.3 2.4 10.8-5.1 11.8-11.9 1-6.8 4.3-19.2 0.2-24.1-4.2-5-25.2 0.5-27 10.5z"/>
									<path id="&lt;Path&gt;" class="s13" d="m113 87.8c0 0-8.3-15.5-28.5-11.3-20.3 4.3-14.5 27.3-5.8 43.8 8.8 16.5-0.7 29.2-11.7 22.4 16 12.3 28.6 10.1 33.7-3.4 5-13.5 2.5-24.6-2.5-35.8-5-11.2 3.3-13.5 9-10 5.8 3.5 5.8-5.7 5.8-5.7z"/>
									<path id="&lt;Path&gt;" class="s13" d="m126 100.8c0 0 7.3-0.2 10 3.3 2.8 3.6 0.9 7.1-0.3 8.1 4.2 0.5 11.1-0.5 12.4-9.1 1.4-8.7-9.4-14.9-12.6-13.8-2.4-7.4-23.5-8.6-30 2-6.5 10.6 5.6 34.9 5.6 34.9 0 0 2.5-6.5 2.5-7.8 0-1.3-2.5-2.9-2-6.5 0.5-3.7 3.2-4.1 4.5-3 1.4 1.1 1.4 4.9 1.4 4.9 0 0 9.5-7.8 8.5-13z"/>
								</g>
							</g>
							<g id="&lt;Group&gt;">
								<path id="&lt;Path&gt;" class="s16" d="m100.7 144.2c0 0 0.6-11.6 10.1-15.1 4.3 11.4 15.9 14.2 18.8 14.6 2.8 0.3 1.7-8.7 1.7-8.7 0 0 2.2-1.8 7 4.1 4.8 5.9 6.6 15.8-3.1 20-9.7 4.1-32.1-2.8-34.5-14.9z"/>
								<path id="&lt;Path&gt;" class="s6" d="m160.4 179.6c0 0-11.1-42.9-30.1-36.1 1.8 1.6 16.7 19.1 15.8 37.4 7.1-1.5 14.3-1.3 14.3-1.3z"/>
							</g>
						</g>
						<g id="&lt;Group&gt;">
							<g id="&lt;Group&gt;">
								<g id="&lt;Group&gt;">
									<g id="&lt;Group&gt;">
										<g id="&lt;Group&gt;">
											<path id="&lt;Path&gt;" class="s8" d="m335.3 167.8c0 0-0.9-4.4-3.8-7.9-3-3.4-4-3.4-5.4-7.3-1.3-4 0.3-5.6 1.9-6 0.6-2.8 2.5-3.2 2.8-3 0.8-3.3 3.1-4 3.8-3.7 0.9-2.1 1.6-2.6 2.9-2.4 1.3 0.3 1.7 0.7 2.8 2.5 1 1.8 2.4 5.3 2.6 6.4 0.2 1-1.7 9.5-2 10.1-0.3 0.6 1.1 10.4 1.1 10.4z"/>
											<path id="&lt;Path&gt;" class="s8" d="m345.5 150c0 0 3.3-8.7 8-11.1 1-2-2.6-2.6-4.3-1.4-1.6 1.2-4.6 4.1-5.5 5.9-0.8 1.8 1.8 6.6 1.8 6.6z"/>
											<path id="&lt;Path&gt;" class="s8" d="m344.5 159c0 0-0.2-0.8-0.2-3.3 0-4 3.3-6.9 2.7-9.9-0.5-2.9-3.7-5.9-6.5-7-2.8-1.1-3.8 1.8-6.8 4.3-2.9 2.5-3.2 3.6-0.9 4.4 2.4 0.7 5.2-2.2 5.9-2.6 1.4 0.8 2.3 2 2.3 2 0 0-3.5 7.6-4.6 9-1.1 1.4-0.6 4.7-0.6 4.7l1.9 6.5z"/>
											<path id="&lt;Path&gt;" class="s8" d="m336.1 141c0 0 4.7 4.3 4.2 6.5-0.5 2.2-2.3 1.4-2.6 0.5 0.7 2 0.1 3.3-0.5 3.7-0.6 0.4-1.6 0.4-2.1-0.6 1 1 1.1 2.5 0.5 3-0.5 0.5-1 1-2.3-0.2 0.8 1.5-0.3 2.6-1.2 2.7-0.8 0.2-0.5-5.4-5.2-7-2.9-1 9.2-8.6 9.2-8.6z"/>
										</g>
										<path id="&lt;Path&gt;" class="s8" d="m395 162.4c-12.8 11-34.2 46-36.9 43.5-6-5.5-13.6-46.9-13.6-46.9l-10.7 4.5c0 0 3.4 71 18 76.5 5.3 2.1 28.9-17.6 38.3-39.5z"/>
										<g id="&lt;Group&gt;">
											<path id="&lt;Path&gt;" class="s12" d="m399.1 153.9c-5.7 3.8-26.7 26.6-35 40.1 6.9 5.9 17.5 15.2 20.6 23.8 3.6-5 9.1-8.1 11.5-13.6z"/>
										</g>
									</g>
								</g>
								<g id="&lt;Group&gt;">
									<g id="&lt;Group&gt;">
										<g id="&lt;Group&gt;">
											<g id="&lt;Group&gt;">
												<g id="&lt;Group&gt;">
													<g id="&lt;Group&gt;">
														<path id="&lt;Path&gt;" class="s7" d="m453.1 444.3c4.1 25 7.8 48.5 7.8 51.7 0 6.8 0 9.5 0 9.5l13.8-2.4c0 0 0.7-33.1 0.6-58.8z"/>
														<path id="&lt;Path&gt;" class="s17" d="m460.8 493.9c0 0-0.5 15.3-0.9 18.6-0.5 4.8 5.4 6.2 9.8 5.5 4.4-0.7 9.9-4.2 8.9-7.1-1-2.9-3.4-10.6-3.3-17.2-3-3.2-14.5 0.2-14.5 0.2z"/>
														<g id="&lt;Group&gt;">
															<path id="&lt;Path&gt;" class="s18" d="m459.9 508.2c0 0-2.4 9.2-0.9 18.1 1.5 9 8.7 16.7 17.3 15 12.4-2.3 9.9-20.1 6.4-25.8-3.6-5.8-5.4-7.9-5.4-7.9 0 0-2.1-4-9-3.7-3.8 0.2-6.7 2.3-8.4 4.3z"/>
														</g>
													</g>
													<g id="&lt;Group&gt;">
														<path id="&lt;Path&gt;" class="s7" d="m401.5 444.3c2.3 23.4 4.3 44.4 4.1 47.4-0.4 6.8-0.5 9.5-0.5 9.5l13.9-1.5c0 0 2.5-30.3 4-55.4z"/>
														<path id="&lt;Path&gt;" class="s17" d="m405.6 493c0 0-0.5 8.6-6.4 12.5-5.9 3.9-7.4 8.4-8.4 9.6-1 1.1-3.6 4.9 8.4 2.2 12-2.7 22.1-8.2 22.1-9.1 0-0.8-1.7-12.6-1.5-15.3-6.5-2.5-14.2 0.1-14.2 0.1z"/>
													</g>
												</g>
											</g>
											<path id="&lt;Path&gt;" class="s19" d="m399.8 262.2c0 0-3.4 22.5-6.7 64.5-2.6 34.7-3.8 55.1-2.5 64.2 1.3 9.2 13.1 99.3 13.1 108.8 9.9 4.6 16.7 0.5 16.7 0.5 0 0 4.3-74.3 2.6-87.8-1.7-13.5-1.7-30-1.7-30l12.6-60.8c0 0 7.3 44.2 10.4 63.5 3 19.2 15.6 118.2 15.6 118.2 0 0 5.6 6.3 16.4-0.7 0-62.5 3.1-98.5-3.3-119.4 1.3-45.3 9.8-93.4-6.8-127.9-46-7.1-66.4 6.9-66.4 6.9z"/>
											<path id="&lt;Path&gt;" class="s20" d="m466.2 255.3c-46-7.1-66.4 6.9-66.4 6.9 0 0-2.7 17.6-5.5 50.8 21.5-17.5 53.2-22.9 80.8-24.7-1.4-11.9-4.1-23-8.9-33z"/>
											<path id="&lt;Path&gt;" class="s18" d="m420.7 502.5c0 0 5.2 10.3 2.3 21.8-3.1 2.5-10.8 3.8-10.8 3.8v-2.9c0 0-10.5 2-15.2 4.5-4.8 2.5-20.3 6-29.8 2.8-9.5-3.3-3.6-3.5 8.8-9.8 12.4-6.3 13.5-8.4 23.5-20.3 3.7-4.4 11.1-0.1 10.3 3.7-0.8 3.8 9.3 0.8 10.9-3.6z"/>
										</g>
										<g id="&lt;Group&gt;">
											<g id="&lt;Group&gt;">
												<path id="&lt;Path&gt;" class="s12" d="m476 155c-6.8-2.5-18.5-3.9-29.9-6.4-15.8-3.5-32.5 1.4-47 5.3-2.2 0.6-5.7 31.3-8.8 45.1 0 0 5.9 2.2 4.7 18.8-1.2 18.5-7.1 57.9 1.7 61.4 0 0 28.8 18.8 77.3 1.5 14.8-12.2-1.6-84.4 2.2-94.9z"/>
											</g>
											<path id="&lt;Path&gt;" class="s6" d="m432 153.9l-6.2 9.6 4.6 5.8-12 78.1 13.9 18.2 11.9-18.6-8.3-77.6 4-6.2z"/>
										</g>
										<g id="&lt;Group&gt;">
											<path id="&lt;Path&gt;" class="s21" d="m445.5 155v-8.7c-1.1-1.3-2-2.9-2.4-4.5-0.7-3.5-1.3-17.5-1.3-17.5l-17.1 8.5c0 0 0.5 9.9-1 12.9-0.5 1.1-1.3 2.2-2.2 3.3h0.1v6z"/>
											<path id="&lt;Path&gt;" class="s8" d="m435 91.8c0 0-14.9 1.5-19.3 14.2-4.3 12.7-1.6 27.9 4.2 30.9 5.7 3 17.7-3.1 25.7-13.1 7.9-10 5.4-32.1-10.6-32z"/>
										</g>
									</g>
								</g>
								<path id="&lt;Path&gt;" class="s18" d="m417 103.1c0 0-0.9 6.5 13.7 4.9 2.2 0.4 5.3 2.7 4.7 5.9-0.6 3.2 2.1 7.2 2.1 7.2 0 0 1.2-6.1 6.1-3.5 2.4 1.3-2 9.2-2 9.2l0.8 7.9c0 0 7.3-8.1 10.7-18.2 3.4-10.1-0.5-18.8-4.7-19.4-2.5-7.3-12.6-9-16.6-7.9-4.1 1-6.7 0.4-6.7 0.4 0.9 1 4.4 1.9 4.7 1.9-3.4 0.9-9.3 0.3-10.6-0.2 0.5 1.8 3.8 2.9 3.8 2.9 0 0-5 1-9-2.4-1.1 2.3 3 5.6 3 5.6 0 0-4.7 0.1-7.4-3.3-0.1 5.1 0.6 14.7 4.4 19.1 0.7-3.7 2.7-9.5 3-10.1z"/>
								<path id="&lt;Path&gt;" class="s8" d="m440.7 116.2c0 0 3-2.5 5.1-1.5 2.2 1-0.3 6.8-2.5 9.2-2.3 2.5-5.3 1.4-5.3-0.4 0-1.7 0.9-6.1 2.7-7.3z"/>
								<g id="&lt;Group&gt;">
									<path id="&lt;Path&gt;" class="s12" d="m443.1 141.8c0 0-2.2 7-10.8 11.1-6.8-3.2-7.9-9.9-7.9-9.9l-6 5.8c0 0 1.7 11.7 7.1 16.5 4-6.3 6.8-9.9 6.8-9.9l7 10.6c0 0 9.1-13.1 9-17.1-2-4.6-5.2-7.1-5.2-7.1z"/>
								</g>
							</g>
							<g id="&lt;Group&gt;">
								<path id="&lt;Path&gt;" class="s7" d="m455.9 270.1l-51.2 8.8-12.5-72.9 51.2-8.8z"/>
								<g id="&lt;Group&gt;">
									<g id="&lt;Group&gt;">
										<path id="&lt;Path&gt;" class="s8" d="m475 185.8c0 0 26.7 27 27.1 32 0.5 4.9-20.6 11.5-38.2 20.8 1.9 7.2 4.4 12.7 4.4 12.7 0 0 53.2-12 54.3-29.7 1-17.7-36.1-53.8-36.1-53.8z"/>
									</g>
									<g id="&lt;Group&gt;">
										<path id="&lt;Path&gt;" class="s12" d="m476 155c0 0 16.9 10.4 36.7 35.8-15 9.1-20.1 18.9-20.1 18.9 0 0-12.8-9.8-16.9-16.3-4-6.4-4.1-30 0.3-38.4z"/>
									</g>
									<path id="&lt;Path&gt;" class="s8" d="m464.5 238.6c0 0-7.4 1.3-11.8-3.3-2.5-2-3.1-1.9-3.1-1.9l0.6 5.2c0 0-11 1.8-16 0.8-5.1-1.1-5.9 2.2-5 2.7 1 0.4 8.4 2.4 17.6 1.5-2.1 1.5-13.8 2.8-18.9 2.6-5.1-0.2-5.2 3.9 0 3.7 5.2-0.2 18.2-0.5 20.6-1.3-4.6 3.1-12.6 4.4-17.3 5-4.6 0.5-4.1 3.5 0 3.5 4.1 0 16.2-2.8 17.9-3.1 1.7-0.3-4.4 3.1-11.1 5.3-4 1.7-2.9 4.5 0.7 3.5 3.6-1 9.9-0.7 17.1-4.5 7.2-3.8 14.1-7.4 14.1-7.4z"/>
								</g>
							</g>
						</g>
					</g>
				</g>
			</g>
		</g>
	</g>
</svg>