<svg xmlns="http://www.w3.org/2000/svg" width="129" height="129" viewBox="0 0 129 129">
  <g id="Group_40684" data-name="Group 40684" transform="translate(-972.5 -8298.5)">
    <circle id="Ellipse_3884" data-name="Ellipse 3884" cx="64" cy="64" r="64" transform="translate(973 8299)" fill="#18b785" stroke="rgba(0,0,0,0)" stroke-width="1" opacity="0.2"/>
    <path id="Path_56481" data-name="Path 56481" d="M102,0H118.6a7.111,7.111,0,0,1,7.111,7.111v4.741a7.112,7.112,0,0,1-7.111,7.112H102a7.112,7.112,0,0,1-7.111-7.112V7.111A7.111,7.111,0,0,1,102,0Zm0,4.741a2.371,2.371,0,0,0-2.37,2.37v4.741A2.371,2.371,0,0,0,102,14.223H118.6a2.371,2.371,0,0,0,2.37-2.371V7.111a2.371,2.371,0,0,0-2.37-2.37Zm0,56.892H118.6a7.112,7.112,0,0,1,7.111,7.112v4.741A7.111,7.111,0,0,1,118.6,80.6H102a7.111,7.111,0,0,1-7.111-7.111V68.745A7.112,7.112,0,0,1,102,61.633Zm0,4.741a2.371,2.371,0,0,0-2.37,2.371v4.741a2.371,2.371,0,0,0,2.37,2.37H118.6a2.371,2.371,0,0,0,2.37-2.37V68.745a2.371,2.371,0,0,0-2.37-2.371Zm0-35.558H118.6a7.111,7.111,0,0,1,7.111,7.112v4.741a7.111,7.111,0,0,1-7.111,7.112H102a7.111,7.111,0,0,1-7.111-7.112V37.928A7.111,7.111,0,0,1,102,30.816Zm0,4.741a2.371,2.371,0,0,0-2.37,2.371v4.741A2.371,2.371,0,0,0,102,45.04H118.6a2.371,2.371,0,0,0,2.37-2.371V37.928a2.371,2.371,0,0,0-2.37-2.371ZM83.015,72.84a17.782,17.782,0,0,1,4.766-34.912h1.185a2.37,2.37,0,0,1,0,4.741H87.781a13.04,13.04,0,0,0-3.246,25.67l-1.158-1.93a2.371,2.371,0,1,1,4.066-2.439L91,69.9a2.371,2.371,0,0,1-.552,3.071l-5.926,4.741a2.37,2.37,0,1,1-2.962-3.7Zm54.571-30.817,1.456,1.165a2.371,2.371,0,1,1-2.962,3.7l-5.926-4.741a2.371,2.371,0,0,1-.552-3.071l3.555-5.927a2.371,2.371,0,0,1,4.066,2.439l-1.158,1.93a13.04,13.04,0,0,0-3.246-25.67h-1.185a2.371,2.371,0,0,1,0-4.741h1.185a17.782,17.782,0,0,1,4.766,34.912Z" transform="translate(926.65 8322.652)" fill="#455a64" stroke="rgba(0,0,0,0)" stroke-width="1"/>
  </g>
</svg>
