<svg xmlns="http://www.w3.org/2000/svg" width="129" height="129" viewBox="0 0 129 129">
  <g id="Group_40681" data-name="Group 40681" transform="translate(-1146.5 -8314.5)">
    <circle id="Ellipse_3885" data-name="Ellipse 3885" cx="64" cy="64" r="64" transform="translate(1147 8315)" fill="#18b785" stroke="rgba(0,0,0,0)" stroke-width="1" opacity="0.2"/>
    <g id="Group_40673" data-name="Group 40673" transform="translate(1179.696 8340.739)">
      <path id="Path_56510" data-name="Path 56510" d="M182.53,14.712a1.153,1.153,0,0,0-.763-1.267Q166.828,6.891,151.966.2a1.6,1.6,0,0,0-1.442,0q-14.962,6.653-29.908,13.268a1.038,1.038,0,0,0-.763,1.129c.069,6.79-.007,13.588.069,20.378a43.656,43.656,0,0,0,8.7,25.941,40.325,40.325,0,0,0,21.126,15.16h0a4.837,4.837,0,0,0,2.907,0,39.856,39.856,0,0,0,20.325-14.092,43.81,43.81,0,0,0,9.537-27.467v-8.8q-.046-5.493.015-11ZM177.143,27.85v7.294h0a36.305,36.305,0,0,1-7.889,22.766,33.04,33.04,0,0,1-16.853,11.7,4.007,4.007,0,0,1-2.411,0,33.424,33.424,0,0,1-17.51-12.581,36.185,36.185,0,0,1-7.217-21.509c-.061-5.631,0-11.261,0-16.892h0a.861.861,0,0,1,.618-.931q12.352-5.471,24.735-11.01a1.327,1.327,0,0,1,1.2,0q12.36,5.539,24.705,10.979a.954.954,0,0,1,.625,1.053V27.85Z" transform="translate(-119.844 -0.028)" fill="#455a64"/>
      <path id="Path_56511" data-name="Path 56511" d="M283.733,194.875a1.091,1.091,0,0,0-1.656.175c-.282.282-.534.6-.809.885l-9.3,9.919-3.052,3.227-.252-.176-3.242-2.556c-.58-.458-1.16-.908-1.755-1.343a1.038,1.038,0,0,0-1.244-.107,8.96,8.96,0,0,0-1.267,1.022.863.863,0,0,0-.114,1.053,8,8,0,0,0,.481.816l6.493,9.453a1.145,1.145,0,0,0,2.007,0q7.087-9.507,14.176-18.99c.3-.412.58-.855.847-1.3h0a.846.846,0,0,0-.137-1.129,9.359,9.359,0,0,0-1.175-.954Z" transform="translate(-241.694 -168.068)" fill="#455a64"/>
    </g>
  </g>
</svg>
