<svg id="Group_48493" data-name="Group 48493" xmlns="http://www.w3.org/2000/svg" xmlns:xlink="http://www.w3.org/1999/xlink" width="53.342" height="9.525" viewBox="0 0 53.342 9.525">
  <defs>
    <clipPath id="clip-path">
      <rect id="Rectangle_22602" data-name="Rectangle 22602" width="4.763" height="9.525" fill="#fff"/>
    </clipPath>
  </defs>
  <path id="Path_49936" data-name="Path 49936" d="M7.582,5.63a.522.522,0,0,0-.152.462l.423,2.343a.515.515,0,0,1-.214.514.524.524,0,0,1-.557.038l-2.109-1.1a.541.541,0,0,0-.238-.062H4.605a.386.386,0,0,0-.129.043L2.367,8.973a.555.555,0,0,1-.338.052A.529.529,0,0,1,1.6,8.42l.424-2.343a.534.534,0,0,0-.152-.466L.157,3.944a.514.514,0,0,1-.128-.538.535.535,0,0,1,.423-.357L2.819,2.7a.529.529,0,0,0,.419-.29L4.282.277a.484.484,0,0,1,.1-.129L4.42.115A.314.314,0,0,1,4.5.053L4.548.034,4.629,0h.2a.535.535,0,0,1,.419.285L6.306,2.415a.53.53,0,0,0,.4.29l2.367.343a.54.54,0,0,1,.433.357.517.517,0,0,1-.138.538Z" transform="translate(0 0.238)" fill="#00b960"/>
  <path id="Path_49937" data-name="Path 49937" d="M7.582,5.63a.522.522,0,0,0-.152.462l.423,2.343a.515.515,0,0,1-.214.514.524.524,0,0,1-.557.038l-2.109-1.1a.541.541,0,0,0-.238-.062H4.605a.386.386,0,0,0-.129.043L2.367,8.973a.555.555,0,0,1-.338.052A.529.529,0,0,1,1.6,8.42l.424-2.343a.534.534,0,0,0-.152-.466L.157,3.944a.514.514,0,0,1-.128-.538.535.535,0,0,1,.423-.357L2.819,2.7a.529.529,0,0,0,.419-.29L4.282.277a.484.484,0,0,1,.1-.129L4.42.115A.314.314,0,0,1,4.5.053L4.548.034,4.629,0h.2a.535.535,0,0,1,.419.285L6.306,2.415a.53.53,0,0,0,.4.29l2.367.343a.54.54,0,0,1,.433.357.517.517,0,0,1-.138.538Z" transform="translate(10.954 0.238)" fill="#00b960"/>
  <path id="Path_49938" data-name="Path 49938" d="M7.582,5.63a.522.522,0,0,0-.152.462l.423,2.343a.515.515,0,0,1-.214.514.524.524,0,0,1-.557.038l-2.109-1.1a.541.541,0,0,0-.238-.062H4.605a.386.386,0,0,0-.129.043L2.367,8.973a.555.555,0,0,1-.338.052A.529.529,0,0,1,1.6,8.42l.424-2.343a.534.534,0,0,0-.152-.466L.157,3.944a.514.514,0,0,1-.128-.538.535.535,0,0,1,.423-.357L2.819,2.7a.529.529,0,0,0,.419-.29L4.282.277a.484.484,0,0,1,.1-.129L4.42.115A.314.314,0,0,1,4.5.053L4.548.034,4.629,0h.2a.535.535,0,0,1,.419.285L6.306,2.415a.53.53,0,0,0,.4.29l2.367.343a.54.54,0,0,1,.433.357.517.517,0,0,1-.138.538Z" transform="translate(21.908 0.238)" fill="#00b960"/>
  <path id="Path_49939" data-name="Path 49939" d="M7.582,5.63a.522.522,0,0,0-.152.462l.423,2.343a.515.515,0,0,1-.214.514.524.524,0,0,1-.557.038l-2.109-1.1a.541.541,0,0,0-.238-.062H4.605a.386.386,0,0,0-.129.043L2.367,8.973a.555.555,0,0,1-.338.052A.529.529,0,0,1,1.6,8.42l.424-2.343a.534.534,0,0,0-.152-.466L.157,3.944a.514.514,0,0,1-.128-.538.535.535,0,0,1,.423-.357L2.819,2.7a.529.529,0,0,0,.419-.29L4.282.277a.484.484,0,0,1,.1-.129L4.42.115A.314.314,0,0,1,4.5.053L4.548.034,4.629,0h.2a.535.535,0,0,1,.419.285L6.306,2.415a.53.53,0,0,0,.4.29l2.367.343a.54.54,0,0,1,.433.357.517.517,0,0,1-.138.538Z" transform="translate(32.862 0.238)" fill="#00b960"/>
  <g id="Group_48492" data-name="Group 48492" transform="translate(43.816 0.238)">
    <path id="Path_49940" data-name="Path 49940" d="M7.582,5.63a.522.522,0,0,0-.152.462l.423,2.343a.515.515,0,0,1-.214.514.524.524,0,0,1-.557.038l-2.109-1.1a.541.541,0,0,0-.238-.062H4.605a.386.386,0,0,0-.129.043L2.367,8.973a.555.555,0,0,1-.338.052A.529.529,0,0,1,1.6,8.42l.424-2.343a.534.534,0,0,0-.152-.466L.157,3.944a.514.514,0,0,1-.128-.538.535.535,0,0,1,.423-.357L2.819,2.7a.529.529,0,0,0,.419-.29L4.282.277a.484.484,0,0,1,.1-.129L4.42.115A.314.314,0,0,1,4.5.053L4.548.034,4.629,0h.2a.535.535,0,0,1,.419.285L6.306,2.415a.53.53,0,0,0,.4.29l2.367.343a.54.54,0,0,1,.433.357.517.517,0,0,1-.138.538Z" transform="translate(0 0)" fill="#d3d3d3"/>
  </g>
  <g id="Mask_Group_36" data-name="Mask Group 36" transform="translate(43.815)" clip-path="url(#clip-path)">
    <path id="Path_49996" data-name="Path 49996" d="M7.582,5.63a.522.522,0,0,0-.152.462l.423,2.343a.515.515,0,0,1-.214.514.524.524,0,0,1-.557.038l-2.109-1.1a.541.541,0,0,0-.238-.062H4.605a.386.386,0,0,0-.129.043L2.367,8.973a.555.555,0,0,1-.338.052A.529.529,0,0,1,1.6,8.42l.424-2.343a.534.534,0,0,0-.152-.466L.157,3.944a.514.514,0,0,1-.128-.538.535.535,0,0,1,.423-.357L2.819,2.7a.529.529,0,0,0,.419-.29L4.282.277a.484.484,0,0,1,.1-.129L4.42.115A.314.314,0,0,1,4.5.053L4.548.034,4.629,0h.2a.535.535,0,0,1,.419.285L6.306,2.415a.53.53,0,0,0,.4.29l2.367.343a.54.54,0,0,1,.433.357.517.517,0,0,1-.138.538Z" transform="translate(0 0.238)" fill="#00b960"/>
  </g>
</svg>
