<svg xmlns="http://www.w3.org/2000/svg" width="129" height="129" viewBox="0 0 129 129">
  <g id="Group_40676" data-name="Group 40676" transform="translate(103.5 -8414.5)">
    <circle id="Ellipse_3880" data-name="Ellipse 3880" cx="64" cy="64" r="64" transform="translate(-103 8415)" fill="#18b785" stroke="rgba(0,0,0,0)" stroke-width="1" opacity="0.2"/>
    <g id="Group_40671" data-name="Group 40671" transform="translate(-77.261 8428.218)">
      <path id="Path_56355" data-name="Path 56355" d="M270.263,106.4a24.943,24.943,0,0,0-36.624,33.7,27.291,27.291,0,0,1,5.779,17.146,2.393,2.393,0,0,0,2.394,2.393h22.553a2.393,2.393,0,0,0,2.393-2.393,29.246,29.246,0,0,1,6.234-17.672,24.921,24.921,0,0,0-2.727-33.177Zm-1.077,30.223h0a34.421,34.421,0,0,0-7.119,18.234h-6.581V141.445l6.82-10.911h0A2.393,2.393,0,0,0,258.25,128l-5.157,8.256L247.936,128h0a2.393,2.393,0,0,0-4.056,2.536l6.82,10.911v13.412h-6.581a31.773,31.773,0,0,0-6.759-17.719,20.16,20.16,0,1,1,35.894-12.587,19.92,19.92,0,0,1-4.069,12.085Z" transform="translate(-214.697 -86.659)" fill="#455a64"/>
      <path id="Path_56356" data-name="Path 56356" d="M306.117,400.059H283.744a2.393,2.393,0,0,0,0,4.786h19.981v6.234a8.794,8.794,0,0,1-17.252,2.393H296.8a2.393,2.393,0,1,0,0-4.785H283.744a2.393,2.393,0,0,0-2.393,2.393,13.58,13.58,0,0,0,27.147,0v-8.626a2.393,2.393,0,0,0-2.38-2.394Z" transform="translate(-256.534 -322.961)" fill="#455a64"/>
      <path id="Path_56357" data-name="Path 56357" d="M491.528,207.2H488.25a2.393,2.393,0,0,0,0,4.786h3.278a2.393,2.393,0,1,0,0-4.786Z" transform="translate(-417.347 -171.306)" fill="#455a64"/>
      <path id="Path_56358" data-name="Path 56358" d="M170.868,207.2H167.59a2.393,2.393,0,0,0,0,4.786h3.267a2.393,2.393,0,0,0,0-4.786Z" transform="translate(-165.197 -171.306)" fill="#455a64"/>
      <path id="Path_56359" data-name="Path 56359" d="M447.735,87.995l-1.758,1.758h0a2.394,2.394,0,0,0,3.386,3.386l1.759-1.783a2.394,2.394,0,0,0-3.386-3.386Z" transform="translate(-385.435 -76.999)" fill="#455a64"/>
      <path id="Path_56360" data-name="Path 56360" d="M216.22,320.194l-1.627,1.639a2.394,2.394,0,0,0,3.386,3.386l1.627-1.627h0a2.394,2.394,0,0,0-3.386-3.386Z" transform="translate(-203.488 -259.617)" fill="#455a64"/>
      <path id="Path_56361" data-name="Path 56361" d="M449.308,319.47a2.394,2.394,0,1,0-3.386,3.386l1.758,1.758h0a2.393,2.393,0,0,0,3.4-3.362Z" transform="translate(-385.393 -259.038)" fill="#455a64"/>
      <path id="Path_56362" data-name="Path 56362" d="M215.745,92.577a2.394,2.394,0,1,0,3.386-3.386L217.5,87.564a2.393,2.393,0,1,0-3.386,3.362Z" transform="translate(-203.013 -76.568)" fill="#455a64"/>
      <path id="Path_56363" data-name="Path 56363" d="M335.594,47.252a2.392,2.392,0,0,0,2.394-2.393V41.592a2.393,2.393,0,0,0-4.786,0v3.267a2.392,2.392,0,0,0,2.393,2.393Z" transform="translate(-297.307 -39.2)" fill="#455a64"/>
    </g>
  </g>
</svg>
