<svg xmlns="http://www.w3.org/2000/svg" width="21.583" height="23.954" viewBox="0 0 21.583 23.954"><defs><style>.a{fill:#10837a;}</style></defs><path class="a" d="M28.146,8.377,20.46,3.94a3.16,3.16,0,0,0-3.106,0L9.669,8.377a3.114,3.114,0,0,0-1.553,2.69v8.875a3.115,3.115,0,0,0,1.553,2.69l7.686,4.437a3.1,3.1,0,0,0,3.106,0l7.686-4.437a3.115,3.115,0,0,0,1.553-2.69V11.067A3.113,3.113,0,0,0,28.146,8.377ZM27.9,19.942a1.307,1.307,0,0,1-.651,1.128l-7.686,4.437a1.323,1.323,0,0,1-1.3,0L10.571,21.07a1.306,1.306,0,0,1-.651-1.128V11.067a1.305,1.305,0,0,1,.651-1.128L18.256,5.5a1.3,1.3,0,0,1,1.3,0l7.686,4.438a1.305,1.305,0,0,1,.651,1.128v8.875Zm-5.07-8.6-8.94,6.907a.9.9,0,0,0,1.1,1.427l8.94-6.907a.9.9,0,0,0-1.1-1.427ZM17.011,14.3a2.512,2.512,0,1,0-1.777-.736A2.5,2.5,0,0,0,17.011,14.3ZM20.8,16.711a2.512,2.512,0,1,0,1.777.736A2.5,2.5,0,0,0,20.8,16.711Z" transform="translate(-8.116 -3.532)"/></svg>