<svg xmlns="http://www.w3.org/2000/svg" width="129" height="129" viewBox="0 0 129 129">
  <g id="Group_40683" data-name="Group 40683" transform="translate(-564.5 -8425.5)">
    <circle id="Ellipse_3883" data-name="Ellipse 3883" cx="64" cy="64" r="64" transform="translate(565 8426)" fill="#18b785" stroke="rgba(0,0,0,0)" stroke-width="1" opacity="0.2"/>
    <path id="noun-price-5374183" d="M174.858,56.171,186.19,37.71a60.9,60.9,0,0,1-3.62-5.041,26.907,26.907,0,0,1-2.7-5.4,11.7,11.7,0,0,1-.25-7.46,7.719,7.719,0,0,1,11.89-4.339,11.717,11.717,0,0,1,4.617,5.91,34.947,34.947,0,0,1,1.791,9.244c.072.958.127,1.981.165,3.079l20.42,6.566a2.573,2.573,0,0,1,1.634,1.575l19,52.205a2.578,2.578,0,0,1-1.545,3.3l-40.657,14.8a2.578,2.578,0,0,1-3.3-1.545l-19-52.205a2.58,2.58,0,0,1,.222-2.221ZM191,46.251a4.678,4.678,0,0,1,.226-3.384,4.61,4.61,0,0,1,1.753-1.994c.017-1.2.022-2.33.017-3.4l-.509-.164L179.906,57.8,197.6,106.416l35.814-13.035-17.69-48.6L198.146,39.13l-.019,1.853a4.695,4.695,0,0,1,1.6,5.833A4.686,4.686,0,0,1,191,46.25Zm-1.921-13.245.069-.113a2.581,2.581,0,0,1,3.08-1.081l.611.2L192.77,31a28.9,28.9,0,0,0-1.445-7.761,6.6,6.6,0,0,0-2.561-3.414,3.041,3.041,0,0,0-2.43-.493,2.863,2.863,0,0,0-1.807,2.026,6.506,6.506,0,0,0,.162,4.066,23.66,23.66,0,0,0,2.243,4.5c.6.949,1.309,1.967,2.146,3.083ZM212.96,63.585a2.584,2.584,0,1,1-4.8,1.883,2.713,2.713,0,0,0-1.746-1.367,6.036,6.036,0,0,0-3.71.128,6.147,6.147,0,0,0-3.237,2.4,2.657,2.657,0,0,0-.423,2.291,3.814,3.814,0,0,0,2.142,1.821,19.338,19.338,0,0,0,5.4,1.27,24.329,24.329,0,0,1,6.893,1.673,8.5,8.5,0,0,1,4.906,4.787,7.688,7.688,0,0,1-.907,6.818,10.736,10.736,0,0,1-3.349,3.279l.791,2.177a2.577,2.577,0,1,1-4.846,1.756l-.79-2.172a10.779,10.779,0,0,1-4.671-.356,7.684,7.684,0,0,1-5.08-4.644,2.582,2.582,0,1,1,4.9-1.63,2.729,2.729,0,0,0,1.739,1.348,6.519,6.519,0,0,0,6.946-2.526,2.662,2.662,0,0,0,.424-2.295,3.7,3.7,0,0,0-2.142-1.817,19.38,19.38,0,0,0-5.4-1.27,24.3,24.3,0,0,1-6.891-1.673,8.621,8.621,0,0,1-4.81-4.539,2.531,2.531,0,0,1-.182-.5,7.705,7.705,0,0,1,.992-6.566,10.75,10.75,0,0,1,3.35-3.279l-.791-2.177a2.577,2.577,0,0,1,4.846-1.756l.789,2.169a10.726,10.726,0,0,1,4.672.358,7.719,7.719,0,0,1,4.99,4.411Z" transform="translate(421.823 8426.509)" fill="#455a64" stroke="rgba(0,0,0,0)" stroke-width="1"/>
  </g>
</svg>
