<svg xmlns="http://www.w3.org/2000/svg" width="29" height="29" viewBox="0 0 29 29"><defs><style>.a{fill:#fff;stroke:#10837a;stroke-width:3px;}.b{fill:#10837a;}.c{stroke:none;}.d{fill:none;}</style></defs><g transform="translate(-596 -4017.098)"><g class="a" transform="translate(596 4017.098)"><circle class="c" cx="14.5" cy="14.5" r="14.5"/><circle class="d" cx="14.5" cy="14.5" r="13"/></g><g transform="translate(603.27 4024.962)"><g transform="translate(0 0)"><path class="b" d="M3.593,26.7H1.227a.39.39,0,0,0-.394.394v6.308a.39.39,0,0,0,.394.394H3.593a.39.39,0,0,0,.394-.394V27.1A.39.39,0,0,0,3.593,26.7Z" transform="translate(-0.833 -21.59)"/><path class="b" d="M27.81,10.059a1.248,1.248,0,0,0-1.284-1.293H22.707a4.271,4.271,0,0,0,.327-3.353,1.7,1.7,0,0,0-1.5-1.214h-.011a.826.826,0,0,0-.874.756,7,7,0,0,1-1.16,3.384,5.545,5.545,0,0,1-1.725,1.113l-.351.173c0,.027,0,.054,0,.082V15.95l.267.092a10.875,10.875,0,0,0,3.929.792H24.7a1.248,1.248,0,0,0,1.284-1.293,1.393,1.393,0,0,0-.115-.557,1.22,1.22,0,0,0,.708-.392,1.325,1.325,0,0,0,.32-.879,1.392,1.392,0,0,0-.115-.556,1.248,1.248,0,0,0,1.029-1.271,1.336,1.336,0,0,0-.35-.914A1.339,1.339,0,0,0,27.81,10.059Z" transform="translate(-13.644 -4.197)"/></g></g></g></svg>