<svg xmlns="http://www.w3.org/2000/svg" width="129" height="129" viewBox="0 0 129 129">
  <g id="Group_40685" data-name="Group 40685" transform="translate(-278.5 -8298.5)">
    <circle id="Ellipse_3881" data-name="Ellipse 3881" cx="64" cy="64" r="64" transform="translate(279 8299)" fill="#18b785" stroke="rgba(0,0,0,0)" stroke-width="1" opacity="0.2"/>
    <g id="Group_40672" data-name="Group 40672" transform="translate(303.348 8324.044)">
      <path id="Path_56401" data-name="Path 56401" d="M411.032,316.122l-15.7-15.738a31.748,31.748,0,0,1-2.338,4.72L407.5,319.64a6.343,6.343,0,0,1-8.962,8.973l-14.19-14.233a32.073,32.073,0,0,1-4.394,2.63l.411.422,14.655,14.732a11.331,11.331,0,0,0,16.009-16.041Z" transform="translate(-334.664 -257.478)" fill="#455a64"/>
      <path id="Path_56402" data-name="Path 56402" d="M177.1,78.4a31.388,31.388,0,1,0,13.811,59.529,32.082,32.082,0,0,0,4.394-2.63A31.364,31.364,0,0,0,177.1,78.4Zm14.634,53.361h0a25.6,25.6,0,0,1-4.6,2.446,26.888,26.888,0,1,1,4.656-2.511Z" transform="translate(-145.618 -78.396)" fill="#455a64"/>
      <path id="Path_56403" data-name="Path 56403" d="M218.38,128.8a21.593,21.593,0,1,0,19.613,30.631,21.09,21.09,0,0,0,1.656-5.358A21.473,21.473,0,0,0,218.38,128.8Zm16.68,21.648a16.555,16.555,0,0,1-.844,5.206,16.777,16.777,0,0,1-8.313,9.633,16.515,16.515,0,0,1-5.412,1.646,16.328,16.328,0,0,1-2.068.14,16.636,16.636,0,1,1,16.539-17.708c.021.368.1.7.1,1.083Z" transform="translate(-186.898 -119.057)" fill="#455a64"/>
      <path id="Path_56404" data-name="Path 56404" d="M307.027,193.72a2.49,2.49,0,0,1-2.436-2.457,6.894,6.894,0,0,0-6.884-6.895,2.489,2.489,0,1,1,0-4.968,11.905,11.905,0,0,1,11.906,11.906,2.489,2.489,0,0,1-2.587,2.414Z" transform="translate(-266.171 -159.874)" fill="#455a64"/>
    </g>
  </g>
</svg>
