<!-- Replace the contents of this editor with your SVG code -->

<svg xmlns="http://www.w3.org/2000/svg" width="21.792" height="21.792" viewBox="0 0 21.792 21.792">
  <g id="Group_33465" data-name="Group 33465" transform="translate(-810.076 -5841.347)">
    <path id="Path_35239" data-name="Path 35239" d="M104.787,20.307q-.585.654-1.1,1.308c-.161.184-.3.367-.459.573A8.75,8.75,0,1,1,94.9,16.155a8.94,8.94,0,0,1,4.267,1.1c.436-.436.872-.849,1.33-1.262l.3-.252A10.786,10.786,0,0,0,94.9,14a10.886,10.886,0,1,0,9.887,6.308Z" transform="translate(726.072 5827.348)" fill="#1564BF"/>
    <path id="Path_35240" data-name="Path 35240" d="M232.832,62.7q-1.239,1.514-2.34,3.1c-.367.528-.734,1.078-1.078,1.629L226.478,63.8a1.061,1.061,0,0,0-1.4-.206,1.035,1.035,0,0,0-.275,1.445l3.693,5.482a1.368,1.368,0,0,0,1.055.573,1.3,1.3,0,0,0,1.124-.619c.206-.367,1.239-2.271,1.927-3.3.665-1.032,1.353-2.042,2.11-3.028.734-.986,1.514-1.95,2.34-2.867a35.1,35.1,0,0,1,2.546-2.661l.023-.023a1.041,1.041,0,0,0,.069-1.445,1.027,1.027,0,0,0-1.468-.092c-1.009.895-1.9,1.789-2.8,2.73a38.593,38.593,0,0,0-2.592,2.913Z" transform="translate(591.214 5786.312)" fill="#1564BF"/>
  </g>
</svg>