<svg width="46" height="46" viewBox="0 0 46 46" fill="none" xmlns="http://www.w3.org/2000/svg"><path d="M19.975 18.75l-11.477.88 1.098 4.097 4.83 1.634 4.165-2.214 1.384-4.397z" fill="#FBD460"/><path d="M10.02 10.772a.55.55 0 0 1 .655-.401l10.897 2.53c.29.067.467.355.395.644l-1.672 6.684c-.821 3.286-4.162 5.328-7.46 4.563a6.008 6.008 0 0 1-4.487-7.336l1.672-6.684z" stroke="#000" stroke-width="2"/><path fill="#000" d="M12.065 23.691l1.974.459-2.14 8.56-1.975-.458z"/><rect width="1.961" height="12.161" rx=".98" transform="matrix(-.24257 .97013 -.9741 -.22612 17.31 31.954)" fill="#000"/><path d="M8.081 18.741c4.443 1.031 8.118-1.135 12.56-.103" stroke="#000" stroke-width="2"/><path d="M37.857 20L27 26.842 30.429 30l5.714-1.053L39 24.737 37.857 20z" fill="#FBD460"/><path d="M24.527 19.04a.514.514 0 0 1 .321-.664l10.348-3.473a.543.543 0 0 1 .68.329l2.303 6.371a5.82 5.82 0 0 1-3.64 7.533c-3.133 1.052-6.585-.615-7.709-3.724l-2.303-6.371z" stroke="#000" stroke-width="2"/><path fill="#000" d="M33.326 28.753l1.918-.644 3.006 8.316-1.918.643z"/><rect width="1.965" height="12.137" rx=".982" transform="matrix(.33997 .94044 -.94803 .31819 42.375 32.968)" fill="#000"/><path d="M27.195 26.667c4.315-1.448 6.19-5.185 10.505-6.634" stroke="#000" stroke-width="2"/></svg>